<svg xmlns="http://www.w3.org/2000/svg" viewBox="0 0 512 512">
  <defs>
    <linearGradient id="bg" x1="0" y1="0" x2="0" y2="1">
      <stop offset="0%" stop-color="#1f2937" />
      <stop offset="100%" stop-color="#0f172a" />
    </linearGradient>
  </defs>
  <rect width="512" height="512" rx="32" fill="url(#bg)" />
  <g opacity="0.2" fill="#94a3b8">
    <ellipse cx="256" cy="120" rx="128" ry="36" />
    <ellipse cx="256" cy="388" rx="150" ry="34" />
  </g>
  <g fill="none" stroke="#e2e8f0" stroke-width="10" stroke-linecap="round">
    <path d="M192 96c-28 42-44 112-44 168 0 76 40 168 40 168" />
    <path d="M320 96c28 42 44 112 44 168 0 76-40 168-40 168" />
  </g>
  <g opacity="0.55" fill="#cbd5f5">
    <path d="M170 180c32-10 64 40 96 40s64-50 96-40 16 82-96 82-128-92-96-82z" />
    <path d="M170 268c32-10 64 40 96 40s64-50 96-40 16 82-96 82-128-92-96-82z" />
  </g>
  <g opacity="0.9" fill="#cffafe">
    <path d="M200 300c38-12 70 32 108 32 26 0 46-10 70-4 24 6 18 54-72 54s-156-62-106-82z" />
  </g>
  <g opacity="0.7" fill="#38bdf8">
    <path d="M188 292c18-6 50 18 72 18 18 0 32-10 54-4s26 34-44 34-108-42-82-48z" />
  </g>
  <circle cx="256" cy="120" r="36" fill="#e2e8f0" opacity="0.4" />
</svg>
