<svg xmlns="http://www.w3.org/2000/svg" viewBox="0 0 512 512">
  <defs>
    <linearGradient id="bg" x1="0" y1="0" x2="0" y2="1">
      <stop offset="0%" stop-color="#1e293b" />
      <stop offset="100%" stop-color="#0f172a" />
    </linearGradient>
  </defs>
  <rect width="512" height="512" fill="url(#bg)" rx="32" />
  <g opacity="0.18" fill="#94a3b8">
    <ellipse cx="256" cy="120" rx="120" ry="36" />
    <ellipse cx="256" cy="392" rx="140" ry="32" />
  </g>
  <g fill="none" stroke="#e2e8f0" stroke-width="10" stroke-linecap="round">
    <path d="M196 96c-28 42-44 112-44 168 0 76 40 168 40 168" />
    <path d="M316 96c28 42 44 112 44 168 0 76-40 168-40 168" />
  </g>
  <g opacity="0.9" fill="#cbd5f5">
    <path d="M170 170c32-8 64 44 96 44s64-52 96-44 16 88-96 88-128-96-96-88z" />
    <path d="M170 266c32-8 64 44 96 44s64-52 96-44 16 88-96 88-128-96-96-88z" />
  </g>
  <g opacity="0.6" fill="#94a3b8">
    <circle cx="206" cy="212" r="28" />
    <circle cx="306" cy="212" r="28" />
    <circle cx="236" cy="300" r="24" />
    <circle cx="276" cy="300" r="24" />
  </g>
  <circle cx="256" cy="120" r="38" fill="#e2e8f0" opacity="0.4" />
</svg>
