<svg xmlns="http://www.w3.org/2000/svg" viewBox="0 0 512 512">
  <defs>
    <linearGradient id="bg" x1="0" y1="0" x2="0" y2="1">
      <stop offset="0%" stop-color="#1f2937" />
      <stop offset="100%" stop-color="#111827" />
    </linearGradient>
  </defs>
  <rect width="512" height="512" rx="36" fill="url(#bg)" />
  <g opacity="0.18" fill="#94a3b8">
    <ellipse cx="256" cy="124" rx="126" ry="40" />
    <ellipse cx="256" cy="392" rx="150" ry="36" />
  </g>
  <g fill="none" stroke="#e2e8f0" stroke-width="10" stroke-linecap="round">
    <path d="M188 96c-22 48-38 118-38 168 0 70 38 168 38 168" />
    <path d="M324 96c22 48 38 118 38 168 0 70-38 168-38 168" />
  </g>
  <g fill="#cbd5f5" opacity="0.65">
    <path d="M184 160c40-8 84 68 120 68 20 0 44-16 76-8 32 8-8 76-84 76s-152-128-112-136z" />
  </g>
  <g fill="#475569" opacity="0.9">
    <path d="M308 196c28-12 60 4 60 36s-20 60-60 60c-24 0-44-12-44-44s24-40 44-52z" />
  </g>
  <g fill="#cbd5f5" opacity="0.5">
    <path d="M188 270c26-10 58 32 90 32s48-24 80-16c32 8-4 72-88 72s-142-80-82-88z" />
  </g>
  <path d="M252 112c18 0 32 14 32 32s-14 32-32 32-32-14-32-32 14-32 32-32z" fill="#e2e8f0" opacity="0.35" />
</svg>
