<svg xmlns="http://www.w3.org/2000/svg" viewBox="0 0 512 512">
  <defs>
    <linearGradient id="bg" x1="0" y1="0" x2="0" y2="1">
      <stop offset="0%" stop-color="#1e293b" />
      <stop offset="100%" stop-color="#0f172a" />
    </linearGradient>
  </defs>
  <rect width="512" height="512" rx="32" fill="url(#bg)" />
  <g opacity="0.18" fill="#94a3b8">
    <ellipse cx="256" cy="120" rx="120" ry="36" />
    <ellipse cx="256" cy="392" rx="140" ry="32" />
  </g>
  <g fill="none" stroke="#e2e8f0" stroke-width="10" stroke-linecap="round">
    <path d="M196 96c-28 42-44 112-44 168 0 76 40 168 40 168" />
    <path d="M316 96c28 42 44 112 44 168 0 76-40 168-40 168" />
  </g>
  <g fill="none" stroke="#cbd5f5" stroke-width="16" stroke-linecap="round" opacity="0.6">
    <path d="M200 192c24 24 56 38 56 64 0 26-22 42-56 64" />
    <path d="M312 192c-24 24-56 38-56 64 0 26 22 42 56 64" />
  </g>
  <g fill="none" stroke="#cbd5f5" stroke-width="8" opacity="0.45">
    <path d="M248 176c0 24-20 44-44 44" />
    <path d="M264 176c0 24 20 44 44 44" />
  </g>
  <circle cx="256" cy="120" r="36" fill="#e2e8f0" opacity="0.35" />
</svg>
